# xmcd
#
# Track frame offsets: 
#        150
#        19515
#        38305
#        53830
#        77705
#        95822
#        111085
#        139000
#        158535
#        175100
#        192167
#        207327
#
# Disc length: 2964 seconds
#
# Revision: 0
# Processed by: cddbd v1.5.1PL0 Copyright (c) Steve Scherf et al.
# Submitted via: ExactAudioCopy v0.90b4
#
DISCID=8e0b920c
DTITLE=Carl Rey - Masochism Mambo
DYEAR=1999
DGENRE=Blues
TTITLE0=Devil To Shame
TTITLE1=What Have I Done
TTITLE2=Get Naked
TTITLE3=Blues Stay Away
TTITLE4=Misery
TTITLE5=Work Work Work
TTITLE6=Blue Shadows
TTITLE7=Rock Steady
TTITLE8=Sweet Taters and Possum Meat
TTITLE9=Masochism Mambo
TTITLE10=Can't Live This Life
TTITLE11=My Baby
EXTD=
EXTT0=
EXTT1=
EXTT2=
EXTT3=
EXTT4=
EXTT5=
EXTT6=
EXTT7=
EXTT8=
EXTT9=
EXTT10=
EXTT11=
PLAYORDER=
